<svg xmlns="http://www.w3.org/2000/svg" width="2267.935" height="2610" viewBox="0 0 2267.935 2610">
  <path id="Path" d="M1780.71,655.468a9.268,9.268,0,0,0,2.115-3.42l.155-.491,39.718-68.663a10.441,10.441,0,0,0,.826-14.454l-.351-.359-32.187-55.642h64.377a10.481,10.481,0,0,0,12.533-7.386l.079-.432,32.347-55.924,32.34,55.909a10.477,10.477,0,0,0,12.129,7.941l.487-.124h64.372l-32.189,55.646a10.444,10.444,0,0,0,.142,14.526l.336.284,39.708,68.645a11.533,11.533,0,0,0,14.438,7.3l.387-.211.571-.33,77.233,0a10.474,10.474,0,0,0,12.965-6.547l.126-.449,32.186-55.643,32.188,55.646a10.478,10.478,0,0,0,12.675,7.141l.415-.148,65.437,0-32.7,56.525a10.441,10.441,0,0,0-.826,14.454l.351.359,32.187,55.642H2200.9a10.481,10.481,0,0,0-12.533,7.386l-.079.432-38.6,66.738-.6.343a9.262,9.262,0,0,0-3.6,12.292l.069.129a9.267,9.267,0,0,0,1.91,3.538l.349.38,39.719,68.663a10.477,10.477,0,0,0,12.129,7.941l.487-.124h64.373l-32.189,55.646a10.443,10.443,0,0,0,.142,14.526l.336.284,32.35,55.922H2200.48a10.474,10.474,0,0,0-12.965,6.547l-.125.449-32.186,55.643-32.188-55.646a10.478,10.478,0,0,0-12.675-7.141l-.415.148h-79.415a11.529,11.529,0,0,0-13.551,8.867l-.009.4v.659l-38.619,66.758a10.441,10.441,0,0,0-.826,14.454l.351.359,32.187,55.642h-64.377a10.481,10.481,0,0,0-12.533,7.386l-.079.432-41.842,72.338a9.261,9.261,0,0,0,3.036,12.443l.363.22,2.159,1.244a9.415,9.415,0,0,0,.969.486l.5.2,36.978,63.927a10.477,10.477,0,0,0,12.129,7.941l.487-.124H2012.2l-32.189,55.646a10.444,10.444,0,0,0,.142,14.526l.336.284,38.606,66.736v.688a9.278,9.278,0,0,0,8.454,9.234l.409.027.147,0a9.3,9.3,0,0,0,4.025.118l.5-.111h79.436a10.474,10.474,0,0,0,12.965-6.547l.126-.449,32.186-55.643,32.188,55.646a10.478,10.478,0,0,0,12.675,7.141l.414-.148,64.7,0-32.341,55.909a10.441,10.441,0,0,0-.826,14.454l.351.359,32.187,55.642h-64.377a10.481,10.481,0,0,0-12.533,7.386l-.079.432L2150,1742.964a11.494,11.494,0,0,0,.9,16.135l.366.222.572.329,38.615,66.76a10.477,10.477,0,0,0,12.129,7.941l.487-.124h64.372l-32.189,55.646a10.443,10.443,0,0,0,.142,14.526l.336.284,32.208,55.68h-66.991a10.49,10.49,0,0,0-12.993,6.5l-.135.476L2155.623,2023l-32.2-55.662a10.492,10.492,0,0,0-12.709-7.128l-.42.152-77.091,0-.66-.381a9.3,9.3,0,0,0-12.225,2.671l-.242.359-.2.333.1-.173a9.269,9.269,0,0,0-2.117,3.425l-.155.492-39.678,68.6a10.454,10.454,0,0,0-.856,14.482l.345.355,32.2,55.658h-64.394a10.494,10.494,0,0,0-12.543,7.439l-.074.421-32.348,55.925-32.346-55.921a10.49,10.49,0,0,0-12.137-7.981l-.48.121-64.393,0,32.2-55.661a10.458,10.458,0,0,0-.17-14.55l-.342-.287L1783.01,1967.1a11.593,11.593,0,0,0-14.464-7.316l-.377.206-.649.376-77.1,0a10.49,10.49,0,0,0-12.993,6.5l-.135.476L1645.1,2023l-32.2-55.662a10.492,10.492,0,0,0-12.709-7.128l-.42.152h-73.7a9.29,9.29,0,0,0-1.1-.831l-.4-.244-2.155-1.242a9.3,9.3,0,0,0-12.467,3.031l-.221.363-41.829,72.31a10.454,10.454,0,0,0-.856,14.481l.345.355,32.2,55.658h-64.394a10.494,10.494,0,0,0-12.543,7.439l-.074.421-38.543,66.637-.66.38a9.262,9.262,0,0,0-3.6,12.292l.089.166a9.263,9.263,0,0,0,1.913,3.542l.349.38,39.679,68.595a10.491,10.491,0,0,0,12.137,7.981l.48-.121,64.393,0-32.2,55.661a10.458,10.458,0,0,0,.17,14.55l.342.287,32.351,55.924h-64.695a10.49,10.49,0,0,0-12.993,6.5l-.135.476-32.193,55.662-32.2-55.662a10.492,10.492,0,0,0-12.709-7.128l-.42.152H1264.77a11.593,11.593,0,0,0-13.581,8.867l-.009.406,0,.749-38.553,66.645a10.454,10.454,0,0,0-.856,14.481l.345.355,32.2,55.658h-64.394a10.494,10.494,0,0,0-12.543,7.439l-.074.421L1134.562,2610l-32.73-56.584a10.491,10.491,0,0,0-12.137-7.981l-.48.121-64.393,0,32.2-55.661a10.458,10.458,0,0,0-.17-14.55l-.342-.287-38.547-66.635v-.761a9.279,9.279,0,0,0-8.885-9.262l-.167,0a9.3,9.3,0,0,0-4.03-.117l-.5.112H925.017a10.49,10.49,0,0,0-12.993,6.5l-.135.476-32.193,55.662-32.2-55.662a10.493,10.493,0,0,0-12.709-7.128l-.42.152-64.7,0,32.348-55.92a10.454,10.454,0,0,0,.856-14.481l-.345-.355-32.2-55.658h64.394a10.494,10.494,0,0,0,12.543-7.439l.075-.421,39.678-68.591a11.557,11.557,0,0,0-.884-16.16l-.368-.223-.651-.373-38.549-66.647a10.491,10.491,0,0,0-12.137-7.981l-.48.121-64.393,0,32.2-55.661a10.458,10.458,0,0,0-.17-14.55l-.342-.287-41.829-72.309a9.3,9.3,0,0,0-12.315-3.6l-.373.2-2.155,1.242a9.368,9.368,0,0,0-1.129.765l-.344.285H669.366a10.49,10.49,0,0,0-12.993,6.5l-.135.476L624.044,2023l-32.2-55.662a10.492,10.492,0,0,0-12.71-7.128l-.42.152-77.091,0-.66-.381a9.3,9.3,0,0,0-12.225,2.671l-.242.359-.2.333.1-.173a9.268,9.268,0,0,0-2.117,3.425l-.155.492-39.679,68.6a10.454,10.454,0,0,0-.856,14.482l.345.355,32.2,55.658H413.744a10.494,10.494,0,0,0-12.543,7.439l-.075.421-32.348,55.925-32.346-55.921a10.49,10.49,0,0,0-12.137-7.981l-.48.121-64.393,0,32.2-55.661a10.458,10.458,0,0,0-.17-14.55l-.342-.287L251.432,1967.1a11.593,11.593,0,0,0-14.464-7.316l-.377.206-.649.376-77.1,0a10.49,10.49,0,0,0-12.993,6.5l-.135.476L113.518,2023l-32.2-55.662a9.274,9.274,0,0,0-3.443-5.131,9.316,9.316,0,0,0-9.267-2l-.42.152H0l32.167-55.606a10.441,10.441,0,0,0,.826-14.454l-.351-.359L.455,1834.3H64.832a9.312,9.312,0,0,0,6.269-.439,9.293,9.293,0,0,0,6.264-6.946l.079-.432,38.6-66.738.6-.343a9.263,9.263,0,0,0,3.795-11.9l-.191-.389-.178-.323.109.193a9.266,9.266,0,0,0-1.91-3.538l-.349-.38L78.2,1674.4a9.291,9.291,0,0,0-6.352-7.383,9.322,9.322,0,0,0-5.776-.558l-.487.124H1.213L33.4,1610.938a10.443,10.443,0,0,0-.142-14.526l-.336-.284L.574,1540.205H65.255a9.317,9.317,0,0,0,9.582-1.8,9.287,9.287,0,0,0,3.383-4.748l.126-.449,32.186-55.643,32.188,55.646a10.478,10.478,0,0,0,12.675,7.141l.414-.148h79.415a11.53,11.53,0,0,0,13.551-8.867l.009-.4v-.659l38.618-66.757a10.441,10.441,0,0,0,.826-14.454l-.351-.359-32.187-55.642h64.377a10.481,10.481,0,0,0,12.533-7.386l.079-.432,36.953-63.887a9.315,9.315,0,0,0,1.024-.437l.5-.268,2.159-1.244a9.262,9.262,0,0,0,3.6-12.292l-.2-.372-41.842-72.338a10.477,10.477,0,0,0-12.129-7.941l-.487.124H257.883l32.189-55.646a10.443,10.443,0,0,0-.142-14.526l-.336-.284L250.988,1089.4v-.688a9.279,9.279,0,0,0-8.885-9.262l-.125,0a9.307,9.307,0,0,0-4.025-.118l-.5.111H158.014a10.474,10.474,0,0,0-12.965,6.547l-.126.449-32.186,55.643L80.55,1086.43a9.278,9.278,0,0,0-3.516-5.2,9.317,9.317,0,0,0-9.159-1.941l-.414.148-64.7,0L35.1,1023.531a10.441,10.441,0,0,0,.826-14.454l-.351-.359L3.393,953.076H67.769a9.313,9.313,0,0,0,6.269-.44A9.293,9.293,0,0,0,80.3,945.69l.079-.432,39.707-68.645a11.493,11.493,0,0,0-.9-16.135l-.366-.222-.572-.329-38.614-66.76a9.291,9.291,0,0,0-6.352-7.383,9.322,9.322,0,0,0-5.776-.558l-.487.124H2.649l32.189-55.646a10.443,10.443,0,0,0-.142-14.526l-.336-.284L1.639,658.334H67.033a9.317,9.317,0,0,0,9.582-1.8A9.288,9.288,0,0,0,80,651.787l.126-.449L112.309,595.7,144.5,651.342a10.478,10.478,0,0,0,12.675,7.141l.414-.148,77.208,0,.6.345a9.3,9.3,0,0,0,12.225-2.671l.242-.359.078-.125a9.268,9.268,0,0,0,2.115-3.42l.155-.491,39.717-68.663a10.441,10.441,0,0,0,.826-14.454l-.351-.359-32.187-55.642h64.377a10.481,10.481,0,0,0,12.533-7.386l.079-.432,32.347-55.924,32.34,55.909a10.477,10.477,0,0,0,12.129,7.941l.487-.124h64.372l-32.189,55.646a10.443,10.443,0,0,0,.142,14.526l.336.284,39.708,68.645a11.532,11.532,0,0,0,14.438,7.3l.387-.211.571-.33,77.233,0a10.474,10.474,0,0,0,12.965-6.547l.126-.449L622.777,595.7l32.188,55.646a10.478,10.478,0,0,0,12.675,7.141l.414-.148,83.687,0a9.28,9.28,0,0,0,9.28-8.868l.009-.4v-2.488a9.346,9.346,0,0,0-.062-1.081l-.077-.527,36.979-63.927a10.441,10.441,0,0,0,.826-14.454l-.351-.359-32.187-55.642h64.377a10.481,10.481,0,0,0,12.533-7.386l.079-.432,38.6-66.738.6-.343a9.263,9.263,0,0,0,3.795-11.9l-.191-.389-.069-.129a9.265,9.265,0,0,0-1.91-3.538l-.349-.38L843.9,350.684a10.477,10.477,0,0,0-12.129-7.941l-.487.124H766.915L799.1,287.222a10.444,10.444,0,0,0-.142-14.527l-.336-.284-32.35-55.922h64.681a10.474,10.474,0,0,0,12.965-6.547l.126-.449,32.186-55.643L908.42,209.5a10.478,10.478,0,0,0,12.675,7.141l.414-.148h79.415a11.53,11.53,0,0,0,13.551-8.867l.009-.4v-.659L1053.1,139.8a10.441,10.441,0,0,0,.826-14.454l-.351-.359-32.187-55.642h64.377a10.481,10.481,0,0,0,12.533-7.386l.079-.432L1133.968,0l35.548,61.455a10.477,10.477,0,0,0,12.129,7.941l.487-.124H1246.5l-32.189,55.646a10.444,10.444,0,0,0,.142,14.527l.336.284,38.606,66.736v.688a9.278,9.278,0,0,0,8.454,9.234l.409.027.147,0a9.306,9.306,0,0,0,4.025.118l.5-.111h79.436a10.474,10.474,0,0,0,12.965-6.547l.126-.449,32.186-55.643,32.188,55.646a10.478,10.478,0,0,0,12.675,7.141l.415-.148,64.7,0-32.341,55.909a10.441,10.441,0,0,0-.826,14.454l.351.359,32.187,55.642h-64.377a10.481,10.481,0,0,0-12.533,7.386l-.079.432L1384.3,419.248a11.493,11.493,0,0,0,.9,16.135l.366.222.572.329,38.614,66.76a10.477,10.477,0,0,0,12.129,7.941l.487-.124h64.372l-32.189,55.646a10.444,10.444,0,0,0,.142,14.526l.336.284,36.957,63.885a9.286,9.286,0,0,0-.133,1.1l-.017.566v2.488a9.279,9.279,0,0,0,8.885,9.262l.4.009,83.687,0a10.474,10.474,0,0,0,12.965-6.547l.126-.449,32.186-55.643,32.188,55.646a10.478,10.478,0,0,0,12.675,7.141l.415-.148,77.208,0,.6.345a9.3,9.3,0,0,0,12.225-2.671l.242-.359Z" fill="#f66"/>
</svg>
